<?xml version="1.0" encoding="UTF-8"?>
<svg width="420.22" height="419.79" version="1.1" viewBox="0 0 420.22 419.79" xmlns="http://www.w3.org/2000/svg">
 <path d="m178.61 418.56c-69.519-11.121-132.52-57.956-160.7-122.86-30.934-68.48-21.447-153.78 25.674-212.72 36.871-49.164 95.9-82.082 157.92-82.628 53.845-3.209 107.97 15.803 148.02 51.92 46.668 40.709 72.839 103.07 70.554 164.85-0.31078 80.07-52.401 156.62-126.57 186.69-36.062 16.375-76.039 17.675-114.9 14.752zm54.311-4.8956c18.356 6.5638 56.13-20.425 31.007-32.921-24.427-7.0406-49.83-19.916-75.341-10.155-15.81 6.5985-62.508 3.3675-43.244 29.988 17.088 14.987 41.884 12.37 63.059 14.509 8.1927 0.10387 16.399-0.31921 24.52-1.4212zm52.28-12.586c32.878-12.358 62.497-33.549 84.323-61.118-19.562-14.682-34.872 17.093-51.024 24.956-13.299 12.046-48.693 16.284-41.671 38.767 3.0558 0.25156 5.775-1.2798 8.3719-2.6054zm-147.32-1.8768c-2.1777-27.638-37.889-28.319-51.91-48.089-11.416-8.432-31.395-41.405-41.58-18.836 23.686 30.147 54.391 57.414 92.081 68.162l1.4097-1.2372zm157.99-26.42c20.027-11.98 46.6-24.93 51.686-49.517-1.1685-23.187 19.378-59.183-4.9451-73.827-22.238-1.4136-47.868-22.877-66.696-2.1602-18.745 19.373-44.841 30.504-61.541 51.907 2.1933 20.28-10.671 50.845 6.9006 63.722 21.721 5.5133 44.368 19.062 66.847 13.911l3.8686-1.7867 3.8798-2.2495zm-139.24 0.81964c16.668-8.7353 55.081-1.0945 52.597-26.568-2.2339-21.297 8.1676-50.811-15.662-62.294-20.31-15.996-41.584-30.704-62.466-45.931-21.774 2.9796-50.767 5.2472-64.935 22.33-2.2717 21.71-5.7144 46.742 2.1686 67.222 16.84 18.42 36.26 35.946 59.313 46.121 9.5258 3.8699 19.482 1.5913 28.984-0.88161zm218.53-43.85c18.812-19.541 26.361-46.692 35.257-71.603 6.9058-20.791-1.054-43.672-14.468-59.399-14.868 5.8224-18.628 30.214-28.735 43.909-12.46 21.332-7.4256 46.351-14.139 69.21-3.4366 15.713 7.84 22.282 22.086 17.883zm-316.75-11.446c0.46794-24.337 9.2287-52.48-3.8274-74.27-11.89-13.846-25.585-57.836-46.564-31.733-9.2263 26.95 6.6429 54.494 13.288 80.381 5.4737 15.693 18.361 36.23 37.103 25.622zm161.79-32.437c21.537-17.565 44.468-33.475 64.672-52.632-3.9531-25.743-16.044-49.396-21.062-74.823-10.935-25.396-41.641-10.02-62.27-13.762-19.751-0.0581-43.838-5.9962-46.102 20.186-8.0225 20.455-14.701 41.398-22.193 62.046 8.129 23.77 36.599 30.251 53.438 46.49 9.0331 6.8749 21.323 23.725 33.517 12.494zm-145.09-38.652c18.804-8.3077 49.377-4.7318 56.083-29.127 9.2222-24.784 18.395-49.612 25.993-74.953-14.194-17.068-24.212-55.42-49.936-50.175-21.31 5.5742-50.194 7.5784-58.871 31.471-11.63 21.309-19.714 44.987-20.568 69.4 13.408 17.625 21.893 49.352 43.912 54.219l3.3858-0.83644zm283 0.18634c10.955-22.075 30.064-43.629 32.372-67.974-3.1411-23.21-11.877-45.601-25.034-64.96-21.697-4.3448-49.732-31.746-68.086-14.655-12.852 19.333-40.43 37.902-28.057 63.667 10.367 21.111 9.2327 47.365 24.849 65.579 15.451 11.402 36.376 10.478 53.979 17.846 3.2825 0.59548 6.6492 0.8669 9.9754 0.49782zm56.188-34.332c2.2481-40.265-11.862-79.859-31.847-114.11-22.97 5.8595 3.9133 36.607 6.3862 51.72 8.5249 20.116 7.0645 49.309 25.461 62.391zm-400.4-11.168c18.218-19.242 10.693-49.457 25.409-70.934 6.8322-8.3676 22.486-38.588 4.4044-35.93-17.28 17.143-25.373 42.154-32.376 65.019-0.67793 12.87-12.904 38.011-2.2068 44.855l2.6808-1.5962 2.0876-1.4133zm244.83-62.899c11.888-17.433 41.536-37.312 34.814-58.049-16.376-18.147-27.481-46.497-53.216-52.155-23.09-0.80073-48.483-5.9859-70.123 4.0405-17.642 14.228-33.661 33.743-42.415 54.568 8.8843 19.421 22.971 43.854 44.234 52.667 28.716-1.2099 57.821 0.34614 86.706-1.0713zm111.35-39.964c6.675-24.688-21.95-38.783-36.957-52.945-17.301-12.547-36.161-23.511-56.963-29.021-28.15 15.914 9.809 39.496 17.766 56.489 17.807 19.435 45.767 23.33 69.141 32.716 4.0692 0.77791 7.302-3.4977 7.0128-7.239zm-302.03-0.27642c21.674-8.7942 50.677-7.1187 63.812-30.132 7.7691-16.309 43.922-37.304 21.781-54.052-18.956-0.95505-35.164 13.219-51.633 21.22-17.968 11.98-36.561 25.349-48.26 43.666-2.926 8.4772 2.3827 27.225 14.3 19.298zm192.68-75.138c11.292-19.491-27.302-13.867-38.778-16.451-17.172 1.2734-50.9-7.6695-55.526 12.833 16.923 11.335 39.033-3.4906 58.212 1.7486 11.922 1.1771 24.232 5.9804 36.092 1.869z" fill="#161918" fill-opacity=".96594" stroke="#84918d" stroke-opacity=".88321"/>
 <g fill="none" stroke-linecap="round" stroke-linejoin="round">
  <path d="m145.89 226.5 24.727-68.74-15.33 73.191 38.573-78.136-24.727 95.939 52.915-95.444-35.112 104.84 56.871-103.36-35.606 116.71 46.98-94.95-28.188 90.005 39.562-64.784-11.869 43.519 17.309-22.748" stroke="#181013" stroke-opacity=".85645" stroke-width="4" style="paint-order:stroke fill markers"/>
  <g stroke="#140713" stroke-opacity=".84672" stroke-width="3">
   <path d="m39.562 190.39 27.694 42.53-29.672-69.729 50.937 66.762-42.035-88.027 63.3 82.587-49.948-100.88 66.267 85.059-46.98-97.423 53.409 64.784-28.188-71.212 33.628 32.145" style="paint-order:stroke fill markers"/>
   <path d="m73.731 323.67 3.547-65.414 9.3698 80.657 10.611-89.431s4.246 104.05 5.6767 103.21 13.632-107.23 13.632-107.23l6.4218 118.03 14.864-111.03 5.9933 115.33 14.046-97.343 8.6995 92.845 13.922-77.014 11.209 71.117" style="paint-order:stroke fill markers"/>
   <path d="m231.82 357.98-13.308-24.508 38.111 35.683-36.398-60.824s56.018 63.16 54.819 61.269c-1.199-1.891-42.787-77.886-42.787-77.886l63.44 70.837s-45.038-89.391-44.226-88.774c0.81155 0.61706 65.721 74.079 66.647 73.653 0.92637-0.42569-42.525-86.652-42.525-86.652l61.89 65.741-41.703-74.952 38.304 35.528-13.128-37.329 19.562 22.031" style="paint-order:stroke fill markers"/>
   <path d="m356.14 235.8-37.362-1.4882 44.145-14.972-60.55 2.864 70.802-17.36-83.575 0.33017 87.426-17.464-93.85-0.69438s97.244-16.628 95.469-18.161c-1.775-1.5337-95.249 1.4034-95.249 1.4034l90.038-30.294-91.35 6.2192 73.628-24.219-59.311-5.9854 31.286-10.376" style="paint-order:stroke fill markers"/>
   <path d="m282.89 86.368-8.1035 24.126 0.81078-42.1-15.442 61.337 5.1071-73.648-23.277 75.999 8.9004-86.616-29.433 88.021 6.2797-95.322-28.819 92.303 6.6275-95.286-26.42 92.901 3.9946-86.768-23.937 75.579 3.0269-63.667-20.407 44.656-0.4952-22.549" style="paint-order:stroke fill markers"/>
  </g>
 </g>
</svg>
