<?xml version="1.0" encoding="UTF-8"?>
<!-- Creator: CorelDRAW X6 -->
<svg width="1350" height="572.29" clip-rule="evenodd" fill-rule="evenodd" image-rendering="optimizeQuality" shape-rendering="geometricPrecision" text-rendering="geometricPrecision" version="1.1" viewBox="0 0 1501.2 636.39" xml:space="preserve" xmlns="http://www.w3.org/2000/svg">
 <defs>
  <style type="text/css">
   <![CDATA[
    .fil93 {fill:#009933}
    .fil3 {fill:#90C5C6}
    .fil4 {fill:#91C5C6}
    .fil5 {fill:#92C6C7}
    .fil6 {fill:#93C7C8}
    .fil7 {fill:#94C8C9}
    .fil91 {fill:#95C2C2}
    .fil8 {fill:#96C8C9}
    .fil9 {fill:#97C9CA}
    .fil10 {fill:#98CACB}
    .fil11 {fill:#99CBCC}
    .fil12 {fill:#9BCBCC}
    .fil13 {fill:#9CCCCD}
    .fil14 {fill:#9DCDCE}
    .fil15 {fill:#9ECECF}
    .fil16 {fill:#9FCFCF}
    .fil17 {fill:#A1CFD0}
    .fil18 {fill:#A2D0D1}
    .fil19 {fill:#A3D1D2}
    .fil20 {fill:#A4D2D2}
    .fil21 {fill:#A6D2D3}
    .fil22 {fill:#A7D3D4}
    .fil23 {fill:#A8D4D5}
    .fil24 {fill:#A9D5D5}
    .fil92 {fill:#A9D6D6}
    .fil25 {fill:#AAD6D6}
    .fil26 {fill:#ACD6D7}
    .fil27 {fill:#ADD7D8}
    .fil28 {fill:#AED8D8}
    .fil29 {fill:#AFD9D9}
    .fil30 {fill:#B1D9DA}
    .fil31 {fill:#B2DADB}
    .fil32 {fill:#B3DBDC}
    .fil33 {fill:#B4DBDC}
    .fil34 {fill:#B4DCDC}
    .fil35 {fill:#B5DCDC}
    .fil36 {fill:#B5DCDD}
    .fil37 {fill:#B6DDDD}
    .fil38 {fill:#B7DDDE}
    .fil39 {fill:#B7DEDE}
    .fil40 {fill:#B8DEDE}
    .fil41 {fill:#B8DEDF}
    .fil42 {fill:#B9DFDF}
    .fil43 {fill:#BADFE0}
    .fil44 {fill:#BAE0E0}
    .fil45 {fill:#BBE0E0}
    .fil46 {fill:#BBE0E1}
    .fil47 {fill:#BCE0E1}
    .fil48 {fill:#BCE1E1}
    .fil49 {fill:#BDE1E1}
    .fil50 {fill:#BDE1E2}
    .fil51 {fill:#BEE2E2}
    .fil90 {fill:#BF6326}
    .fil52 {fill:#BFE2E3}
    .fil53 {fill:#BFE3E3}
    .fil54 {fill:#C0E3E3}
    .fil55 {fill:#C0E3E4}
    .fil56 {fill:#C1E4E4}
    .fil57 {fill:#C2E4E5}
    .fil58 {fill:#C2E5E5}
    .fil59 {fill:#C3E5E5}
    .fil60 {fill:#C3E5E6}
    .fil61 {fill:#C4E6E6}
    .fil62 {fill:#C5E6E7}
    .fil63 {fill:#C5E7E7}
    .fil64 {fill:#C6E7E7}
    .fil65 {fill:#C7E8E8}
    .fil66 {fill:#C8E8E8}
    .fil67 {fill:#C8E9E9}
    .fil68 {fill:#C9E9E9}
    .fil69 {fill:#CAE9EA}
    .fil70 {fill:#CAEAEA}
    .fil71 {fill:#CBEAEA}
    .fil72 {fill:#CBEAEB}
    .fil73 {fill:#CCEBEB}
    .fil74 {fill:#CDEBEC}
    .fil75 {fill:#CDECEC}
    .fil76 {fill:#CEECEC}
    .fil77 {fill:#CFEDED}
    .fil78 {fill:#D0EDED}
    .fil79 {fill:#D0EEEE}
    .fil80 {fill:#D1EEEE}
    .fil81 {fill:#D2EFEF}
    .fil82 {fill:#D3EFEF}
    .fil83 {fill:#D3F0F0}
    .fil84 {fill:#D4F0F0}
    .fil85 {fill:#D5F1F1}
    .fil86 {fill:#D6F1F1}
    .fil87 {fill:#D7F2F2}
    .fil0 {fill:#E0D7C5}
    .fil89 {fill:#FFB65C}
    .fil94 {fill:black;fill-rule:nonzero}
    .fil97 {fill:#E6E6E6;fill-rule:nonzero}
    .fil96 {fill:url(#id1)}
    .fil95 {fill:url(#id2)}
    .fil1 {fill:url(#id3)}
    .fil2 {fill:url(#id4)}
    .fil88 {fill:url(#id5)}
   ]]>
  </style>
    
  <linearGradient id="id1" x1="1273" x2="1255.2" y1="622.06" y2="409.85" gradientUnits="userSpaceOnUse">
   <stop stop-color="gray" offset="0"/>
   <stop stop-color="#E6E6E6" offset=".81961"/>
   <stop stop-color="gray" offset="1"/>
  </linearGradient>
  <linearGradient id="id2" x1="1255.4" x2="1235.9" y1="619.16" y2="394" gradientUnits="userSpaceOnUse">
   <stop stop-color="#B3B3B3" offset="0"/>
   <stop stop-color="#fff" offset=".81961"/>
   <stop stop-color="#ccc" offset="1"/>
  </linearGradient>
  <linearGradient id="id3" x1="597.95" x2="794.58" y1="433.33" y2="777.42" gradientUnits="userSpaceOnUse">
   <stop stop-color="#A5D4D4" offset="0"/>
   <stop stop-color="azure" offset=".52941"/>
   <stop stop-color="#B8E0E0" offset="1"/>
  </linearGradient>
  <linearGradient id="id4" x1="492.17" x2="900.36" y1="381.89" y2="892.14" gradientUnits="userSpaceOnUse">
   <stop stop-color="#D7F2F2" offset="0"/>
   <stop stop-color="#F7FFFF" offset=".52941"/>
   <stop stop-color="#D7F2F2" offset="1"/>
  </linearGradient>
  <radialGradient id="id5" cx="570.18" cy="1380.1" r="248.16" gradientTransform="scale(2.0068 .49832)" gradientUnits="userSpaceOnUse">
   <stop stop-color="#f60" offset="0"/>
   <stop stop-color="#FF8923" offset=".25882"/>
   <stop stop-color="#FFAB45" offset="1"/>
  </radialGradient>
 </defs>
 <g transform="translate(-8 -350.61)" stroke-linecap="round" stroke-linejoin="round" stroke-width="21.014">
  
  
  
  <path class="fil2" d="m696 408c377 0 683 103 683 229s-306 229-683 229-683-103-683-229 306-229 683-229zm0 86c301 0 545 67 545 150s-244 150-545 150-545-67-545-150 244-150 545-150z" fill="none" stroke="#0b3441" stroke-opacity=".95134"/><g fill="#1d8f1b" stroke="#249c01" stroke-opacity=".95134">
  
   
  
  
  
  
  
  
  
   <path class="fil93" d="m767 627c-9 2-40 13-10 14 13 0 19-16 10-14z"/>
   <path class="fil93" d="m599 637c7 5 15 10 20 9 4-1 8-6 9-7 4-3-1-5-22-7z"/>
   <path class="fil93" d="m711 671c-4 11-21 9 15 14 20 3-14-15-15-14z"/>
   <path class="fil93" d="m647 692c-8 8-4 16-3 16 7 3 26-4 24-7-8-15 5-5-21-9z"/>
   <path class="fil93" d="m798 662c-2 5-18 1-16 5 2 3 9 9 14 8 4-1 7-4 14-6 5 0-11-8-12-7z"/>
   <path class="fil93" d="m553 671c-22 9-36 0-11 15 4 3 26-2 27-7 0-1-3-6-16-8z"/>
   <path class="fil93" d="m782 700c-1 0-11 3-9 6 1 2 3 3 20 6 1 0 5-4 4-5-2-4-12-6-15-7z"/>
   <path class="fil93" d="m862 646c-1 0-26-4-19 5 8 12 0 5 23-1 0-1-5-4-4-4z"/></g><g fill="none"><g stroke="#0b3441" stroke-opacity=".95134">
  
  <path class="fil94" d="m223 713c-1-1 11 7 14 9 1 1-21-1-22-1-12-12-22-25-22-42 0-12 4-20 11-30 29-36 96-57 139-68 115-29 235-38 353-38 121 1 237 4 355 35 37 10 72 26 106 47 25 17 52 42 33 74-3 5-11 15-16 18-1 0-1 0-1-1 3-5 10-10 15-19 15-30-11-52-34-67-34-19-68-35-105-45-117-29-232-32-353-33-117 1-236 10-351 39-40 11-105 31-132 65-6 7-9 14-9 23 0 14 9 25 19 34z"/>
  <path class="fil94" d="m1227 613c-82-103-410-111-532-111-84-1-538 15-538 142 0 123 458 145 539 145 120-1 447-18 531-117 16-18 15-40 0-59zm6 64c-73 106-421 123-537 123-89 0-550-21-550-156 0-139 456-153 549-152 117 1 460 13 535 116 6 8 11 20 12 32 1 14-3 27-9 37z"/>
  <path class="fil94" d="m1227 782c2 2-37 63-42 69-14 22-28 34-50 48-52 32-113 49-172 61-92 20-175 27-269 27-96 0-181-8-275-28-65-14-128-33-183-72-16-11-19-18-29-35-10-18-34-45-46-67-2-3 0-9 0-10 2-1 6 0 8 3 3 4 34 49 47 68 11 16 10 20 27 32 53 38 116 56 178 70 94 20 177 27 273 27 93 0 175-6 266-26 58-12 118-29 169-60 18-12 36-24 47-43 5-7 48-65 51-64z"/>
  <path class="fil94" d="m1324 550c-150-113-448-132-628-134-162 0-326 15-481 64-63 22-194 73-196 157 2 84 133 135 196 156 161 51 313 65 481 67 166-2 323-16 481-67 51-17 102-39 145-71 16-13 53-58 52-84-2-34-30-72-50-88zm58 89c0 32-39 79-53 91-43 35-96 56-148 74-160 52-318 65-485 67-169-1-322-16-484-67-69-24-202-77-204-167 2-90 135-143 204-167 156-49 321-64 484-64 180 3 483 24 631 140 26 20 52 48 55 93z"/>
  
  
  
  
  
  
  
 </g><g><path d="m223.38 820.34c10.256 12.307 30.769 51.281 30.769 51.281l6.1537-30.769 34.871 45.127 8.205-36.922 49.23 61.537 14.359-53.332 49.23 67.691 41.025-49.23 22.564 59.486 69.742-49.23 32.82 75.896 57.435-71.793 47.178 65.64 79.998-59.486 18.461 53.332 104.61-61.537 16.41 53.332 84.101-71.793 22.564 59.486 86.152-86.152 6.1537 34.871 54.24-53.598" stroke="#17772a"/><path d="m245.87 675.51 203.06-85.576-191.46 107.33 295.89-124.74-250.93 142.14 351.01-150.85-288.64 171.15" stroke="#d71c28"/><path d="m812.99 758.18 201.61-165.35-121.84 152.3 166.8-133.44-81.225 129.09 145.04-87.027-31.91 62.369 55.117-26.108" stroke="#ee2414"/></g></g></g>
</svg>
