<?xml version="1.0" encoding="UTF-8"?>
<!-- Created with Inkscape (http://www.inkscape.org/) -->
<svg width="100.77mm" height="88.223mm" version="1.1" viewBox="0 0 100.77 88.223" xmlns="http://www.w3.org/2000/svg">
 <g transform="translate(50.387 44.117)" stroke="#180043" stroke-linecap="round" stroke-linejoin="round" stroke-width="2">
  <path d="m49.14 25.748c-1.092 2.015-2.181 4.032-3.623 5.829-7.821 9.743-4.874 12.941-8.337 10.992-23.412-13.173-52.423-31.642-66.639-38.143-6.866-3.14-12.775-7.824-19.378-11.359-0.648-0.347-0.693-0.737-0.28-1.375 9.491-14.666 9.758-16.152 10.795-15.245 1.996 1.746 4.6 2.42 6.751 3.888 1.46 0.997 1.504 0.986 2.359-0.491 7.434-12.828 22.679-23.767 37.85-22.889 1.459 0 2.942-0.17 4.373 0.029 18.208 2.525 25.605 14.795 30.429 21.458 1.345 1.857 0.364 2.655 2.75 6.75 2.887 4.955 1.654 19.072-0.729 23.143-1.768 3.02-2.824 6.368-4.474 9.437-0.31 0.577-0.343 1.009 0.323 1.42 2.433 1.502 4.528 3.523 7.179 4.69 0.911 0.4 1.125 0.992 0.651 1.866zm-2.936-1.519c-2.162-1.345-4.213-2.877-6.254-4.407-1.892-1.418-1.87-1.598-0.362-3.322 0.273-0.312 0.571-0.638 0.723-1.012 1.812-4.454 4.618-8.545 5.47-13.333 0.817-4.591 1.141-13.316-1.351-17.273-2.317-3.68 0.117-4.256-9.236-15.006-4.261-4.897-9.616-8.503-15.98-10.15-3.276-0.848-6.542-2.264-9.849-1.434-8.898-0.761-19.321 3.072-25.847 9.15-0.99 0.923-11.84 10.491-12.732 14.902-0.153 0.754-0.713 0.654-1.195 0.273-2.225-1.757-4.868-2.795-7.257-4.261-0.865-0.531-1.229-0.403-1.66 0.397-2.026 3.753-4.74 7.097-6.555 10.977-1.208 2.581-2.252 2.74 0.207 3.941 6.576 3.211 4.318 4.027 7.117-0.027 0.293-0.424 0.696-0.678 1.188-0.308 0.801 0.603 0.112 1.225-0.223 1.736-1.734 2.641-3.078 1.89 6.443 7.017 1.829 0.985 2.037-0.724 3.38-2.442 0.195-0.249 0.528-0.608 0.918-0.26 0.268 0.24 0.151 0.555 0.016 0.86-0.337 0.757-0.52 1.618-0.996 2.268-0.611 0.835-0.082 1.196 0.47 1.422 6.15 2.523 7.316 5.195 8.582 3.426 1.775-2.482 2.117-2.843 2.662-2.478 0.678 0.454 0.248 0.916-1.415 3.075-1 1.298-0.125 1.15 7.108 5.351 0.854 0.496 0.934-0.152 2.876-2.969 0.274-0.398 0.62-0.794 1.154-0.478 0.585 0.346 0.261 0.766 0.02 1.191-1.971 3.485-1.964 3.482 1.603 5.376 1.147 0.609 2.359 1.122 3.359 1.971 1.311 1.113 1.795-0.329 3.549-2.695 0.237-0.32 0.479-0.775 0.994-0.453 1.738 1.086-3.543 3.935-1.102 5.288 9.384 5.202 6.99 5.631 10.676 0.59 0.229-0.313 0.443-0.822 0.957-0.519 0.532 0.314 0.1 0.767-2e-3 1.113-0.313 1.056-1.168 1.809-1.635 2.809-1.051 2.25 1.111 1.543 7.085 5.802 1.234 0.88 1.327-0.559 3.318-3.156 0.343-0.447 0.494-1.571 1.423-0.866 0.731 0.555 0.031 1.113-0.332 1.576-0.652 0.829-1.043 1.794-1.524 2.715-0.385 0.738-0.29 1.222 0.458 1.672 4.849 2.916 5.49 4.267 6.872 2.461 2.268-2.964 2.404-3.556 2.886-3.293 0.499 0.272 0.357 0.517-1.671 3.742-1.203 1.913 0.054 1.805 6.397 5.297 0.602 0.332 1.07 0.409 1.375-0.335 1.4-3.417 3.776-6.213 5.854-9.199 3.622-5.201 3.581-5.763 2.038-6.722z"/>
  <path d="m34.043-3.142c0.631 4.792-0.601 9.185-2.744 13.402-0.589 1.159-1.484 4.99-3.03 3.432-1.239-1.249-2.932-1.765-4.341-2.733-11.718-8.049-38.754-22.449-40.83-23.408-1.053-0.486-0.61-1.174-0.222-1.786 3.5-5.538 7.393-10.56 13.514-13.651 4.576-2.31 9.34-2.053 14.12-2.35 0.247-0.015 0.501 0.127 0.756 0.174 5.137 0.94 9.445 3.705 13.8 6.336 4.258 2.572 3.947 5.569 7.312 9.934 2.867 3.718 1.501 7.783 1.665 10.65zm-3.062-9.981c-3.206-4.793-3.424-7.616-7.124-9.887-3.811-2.339-7.575-5.021-12.041-5.723-7.68-1.207-14.947-0.184-20.785 5.69-2.463 2.478-4.926 4.935-6.278 8.277-0.408 1.009-0.386 1.562 0.628 2.13 45.908 25.702 15.824 7.977 36.81 21.084 5.934 3.706 6.685 3.79 7.366 2.106 1.049-2.595 2.434-5.056 2.989-7.846 0.412-2.074 0.026-4.159 0.266-6.799-1e-3 -3.765 0.302-5.842-1.831-9.032z"/>
 </g>
 <g fill="none" stroke-linecap="round" stroke-linejoin="round">
  <g stroke-width="3">
   <path d="m4.6433 70.976 1.99-5.6383 4.3117 13.764" stroke="#b5f726"/>
   <path d="m7.4625 80.263 7.4625-2.4875" stroke="#b5f726"/>
   <path d="m30.182 66.831 5.4725-1.1608-2.985 5.8041s5.6383-2.985 6.6333 1.6583c0.995 4.6433-4.975 4.975-4.975 4.975" stroke="#4a20e1"/>
  </g>
  <path d="m9.95 30.513 8.6233-0.82916-4.3117 3.6483 19.568 1.4925-7.96 3.98 19.237 3.8142-8.1258 4.4775 23.217 2.985-7.2966 3.4825 19.071 4.4775-5.1408 2.985 16.252 3.1508s-5.3066 4.4775-2.985 4.6433c2.3217 0.16583 12.603 0.82916 12.603 0.82916" stroke="#ee1138" stroke-width="2"/>
  <g stroke="#e70054" stroke-width="2">
   <path d="m27.528 25.704 14.427-15.257"/>
   <path d="m46.765 11.94 6.1358-6.3016"/>
   <path d="m55.886 11.111 7.1308-5.8041"/>
   <path d="m69.484 13.267 4.4775-3.98"/>
   <path d="m79.434 19.071 3.3167-3.3167"/>
   <path d="m83.082 26.699 5.8041-4.3116"/>
   <path d="m87.726 35.488 4.8091-4.6433"/>
   <path d="m86.565 46.101 7.2966-7.96"/>
   <path d="m85.404 56.715 7.1308-9.4525"/>
  </g>
 </g>
</svg>
