<?xml version="1.0" encoding="UTF-8"?>
<!-- Created with Inkscape (http://www.inkscape.org/) -->
<svg width="125.45mm" height="88.729mm" version="1.1" viewBox="0 0 125.45 88.729" xmlns="http://www.w3.org/2000/svg">
 <g transform="translate(62.724 44.364)" stroke-linecap="round" stroke-linejoin="round" stroke-width="2">
  <path d="m61.655 30.323c-4.796-24.809-4.695-28.043-7.226-41.438-1.233-6.527-3.018-12.945-3.871-19.547-0.181-1.4-0.839-2.095-2.369-1.977-5.035 0.387-3.347-1.364-4.193-3.281-0.716-1.622 0.319-3.129-1.651-4.101-4.456-2.2-9.158-3.619-14.125-3.298-5.479 0.354-10.988 0.59-16.358 2.072-16.138 4.451-14.012 9.705-17.911 7.845-1.885-0.899-6.236-4.196-18.526-6.022-5.209 0.308-18.252 0.323-27.884 8.337-1.637 1.362-2.678 2.829-1.62 5.033 0.153 0.318 0.098 0.732 0.236 1.062 0.932 2.227-2.823 2.626-6.779 4.399-0.965 0.432-1.227 0.846-1.055 1.84 0.365 2.102 0.609 4.225 0.921 6.336 3.173 21.418 3.462 19.221 4.405 27.066 0.363 3.014 3.683 26.505 3.689 27.653 8e-3 1.415 0.781 1.183 6.966 0.634 10.866-0.964 41.877-4.916 46.344-1.651 2.047 1.496 3.352 0.341 4.94 0.439 2.53 0.157 1.865-2.349 5.579-3.026 14.06-2.562 13.875-1.303 25.247-2.85 2.62-0.357 5.263-0.935 7.868-0.957 5.252-0.045 10.232-1.773 15.42-2.057 0.249-0.014 0.491-0.163 0.734-0.256 1.056-0.402 1.47-0.96 1.219-2.255zm-63.993-63.044c6.949-6.012 17.112-8.76 24.94-8.837 4.031 0.241 10.256-2.129 19.393 3.513 0.483 0.298 0.689 0.658 0.795 1.232 4.211 22.953 4.51 29.767 7.498 39.278 1.523 4.847 2.339 9.907 2.541 15.026 0.058 1.473-0.079 1.627-1.568 1.312-1.039-0.219-10.17-2.909-21.321-1.926-6.428 0.567-16.403 2.068-21.981 6.529-0.443 0.354-0.997 0.564-1.465 0.892-1.619 1.133-1.774-0.382-2.41-7.134-0.246-2.617-6.2-38.29-7.376-47.741-0.115-0.92 0.254-1.539 0.954-2.144zm53.849 54.671c-1.177 3.167-1.116 3.106-4.425 2.556-12.467-2.073-21.391 0.562-30.749 3.72-2.312 0.78-3.062 3.302-5.397 1.589-1.238-0.908-2.519-1.882-4.085-2.224-3.358-0.733-6.349 0.237-8.83 2.421-1.45 1.276-2.726 1.367-4.509 0.959-5.269-1.206-10.613-2.344-16.017-2.326-6.523 0.022-13.164-0.092-19.184 3.195-0.494 0.27-0.864 0.183-1.206-0.282-3.328-4.519-4.131-4.639-2.469-5.923 4.336-3.346 9.343-4.635 14.628-5.183 3.154-0.327 6.257-1.093 9.45-1.075 5.054 0.133 6.781 1.244 11.838 1.805 4.959 0.551 9.459 2.665 13.99 4.599 0.866 0.37 1.601 0.363 2.337-0.176 13.387-9.797 33.571-8.64 43.735-5.418 1.007 0.32 1.292 0.691 0.893 1.763zm-104.28-51.395c9.704-7.829 24.136-11.06 38.188-6.462 2.493 0.816 4.616 2.362 6.93 3.508 2.511 1.244 3.412 3.062 3.688 5.648 0.945 8.85 4.689 25.183 7.233 49.187 0.1 0.944-0.302 1.077-1.094 0.79-0.975-0.354-2.042-0.523-2.94-1.011-4.459-2.421-9.964-2.115-13.599-3.106-3.783-1.031-7.595-1.122-11.453-0.59-14.039 1.935-14.881 2.543-19.449 5.763-2.209 1.557-2.445 1.377-2.674-1.37-0.107-1.287-3.688-45.066-5.409-50.66-0.226-0.735-0.068-1.175 0.579-1.697zm56.064 69.906c-2.324 0.03-3.628-1.34-3.654-3.839-0.023-2.227 2.472-4.849 4.637-4.875 1.622-0.019 4.45 2.74 4.456 4.348 9e-3 2.486-2.283 4.325-5.439 4.366zm55.167-8.877c-20.474 4.276-37.963 3.636-47.308 5.876-2.763 0.662 0.981-1.782-3.297-5.357-1.863-1.557-3.65-2.042-5.798-0.764-2.294 1.365-3.883 3.18-3.711 6.019 0.153 2.529-1.661 0.359-19.69 2.192-31.006 3.153-29.743 3.284-30.052 1.477-1.435-8.402-2.759-16.818-3.778-25.283-1.125-9.35-1.453-6.743-5.294-33.736-0.318-2.234 2.125-1.959 6.985-4.547 0.954 3.866 4.504 44.388 4.549 45.009 0.149 2.053-0.306 4.14 1.876 5.681 1.953 1.378 1.99 6.502 5.913 4.619 9.346-4.486 24.731-3.128 35.175-0.153 2.219 0.632 2.143 1.446 3.421-0.274 3.597-4.841 10.264-4.753 13.176-0.518 0.616 0.895 1.269 1.202 1.993 0.424 2.481-2.669 5.813-3.473 9.112-4.455 25.161-7.489 27.44 2.112 29.888-1.804 1.023-1.637 1.259-4.503 2.708-6.086 0.468-0.511 0.515-1.118 0.377-1.758-1.134-5.277-1.742-10.653-3.097-15.89-3.161-12.219-2.356-5.613-6.014-29.726-0.391-2.574-1.265-3.971 0.287-3.746 3.118 0.452 3.361 0.045 3.734 1.863 4.483 21.793 4.138 20.672 6.929 38.161 2.616 16.395 5.442 22.04 1.916 22.776z" stroke="#14652a"/>
  <path d="m29.781 32.159c7.64-0.84 9.015-3.463 9.266-1.855-1.001 2.721-18.807 7.021-36.745-1.58-0.358-0.172-0.694-0.311-0.527-0.778 0.742-2.07 8.453 6.361 28.006 4.213z" stroke="#c7be2a"/>
  <path d="m6.769 23.306c-1.217-0.365-2.346-1.026-3.345-2.055 0.584-0.387 0.937-0.128 1.208 0.028 2.75 1.579 5.837 2.114 8.834 2.945 6.955 1.929 13.852 1.832 20.728-0.378 1.429-0.459 2.939-0.645 4.305-1.334 0.412-0.208 0.955-0.32 1.156 0.325 0.182 0.586-0.183 0.859-0.703 0.987-13.872 3.419-16.275 4.256-32.183-0.518z" stroke="#782b2a"/>
  <path d="m32.68-10.771c-5.511 0.394-10.898-0.374-16.257-1.493-0.855-0.179-1.694-0.893-2.489-0.817-2.05 0.196-2.833-1.609-4.629-2.236 1.447-1.052 1.855 0.179 4.71 1.386 3.345 1.414 6.936 1.782 10.481 2.246 4.215 0.552 8.422-0.152 12.625-0.456 11.123-0.806 11.255-3.407 11.654-1.945 0.132 0.485-0.118 0.892-0.614 0.863-1.37-0.08-2.481 0.713-3.731 1.028-3.864 0.973-7.806 1.142-11.75 1.424z" stroke="#782b2a"/>
  <path d="m12.731 17.071c-1.936-0.648-3.665-1.655-5.523-2.417-0.363-0.149-0.714-0.435-0.685-0.95 0.508-0.228 0.889 0.138 1.31 0.274 5.713 1.835 7.318 4.547 21.358 3.09 11.166-1.159 11.34-3.859 12.984-2.253-1.799 1.673-2.605 0.983-5.317 1.824-5.572 1.73-17.514 2.645-24.127 0.432z" stroke="#c72600"/>
  <path d="m36.533-4.389c-7.569-0.011-21.193-0.418-27.361-5.085-0.391-0.296-1.24-0.672-0.783-1.258 0.731-0.938 2.275 3.025 10.783 4.136 11.826 1.544 17.28 2.134 23.732-0.143 0.9-0.318 3.592-1.245 3.737-0.303 0.15 0.975-2.343 0.9-4.006 1.537-1.956 0.748-3.99 1.119-6.102 1.116z" stroke="#782b2a"/>
  <path d="m19.731 10.405c-3.798-0.368-7.272-2.035-10.862-3.212-1.124-0.369-2.138-1.042-2.881-2.197 3.042-0.203 9.021 7.468 29.409 3.525 2.011-0.389 3.862-1.175 5.701-2.026 0.344-0.159 0.763-0.599 1.075-0.055 1.069 1.86-11.988 4.978-22.442 3.965z" stroke="#782b2a"/>
  <path d="m7.202-0.823c-0.397-0.306-1.132-0.604-0.795-1.122 0.374-0.576 0.893 0.112 1.324 0.3 1.613 0.704 2.887 2.005 4.63 2.51 10.279 2.982 20.386 2.691 30.319-1.461 0.44-0.184 1.098-0.847 1.398 0.09 0.242 0.755-0.491 0.893-1.025 1.075-10.283 3.497-27.397 5.141-35.851-1.392z" stroke="#c7be2a"/>
  <path d="m-26.157-3.851c-4.755-0.587-9.4-1.697-13.699-3.918-0.875-0.452-1.88-0.87-2.203-2.282 0.862 0.307 1.562 0.397 2.056 0.887 3.039 3.012 15.813 5.077 23.603 4.797 6.562-0.236 0.514 1.228 12.443-2.157 0.973-0.276 2.097-0.211 2.626-1.375 0.604-1.328 2.622 0.448 0.049 1.368-11.18 3.994-15.831 3.796-24.875 2.68z" stroke="#c6be2a"/>
  <path d="m-7.756 13.175c0.479-0.11 1.243-0.556 1.448 0.249 0.155 0.609-0.604 0.589-1.018 0.685-25.019 5.79-38.11-1.027-37.139-2.495 0.764-1.154 8.961 7.962 36.709 1.561z" stroke="#782b2a"/>
  <path d="m-45.67 19.689c-0.344-0.108-0.81-0.231-0.69-0.675 0.153-0.562 0.699-0.376 1.053-0.254 26.651 9.245 38.981-0.578 39.541 1.439 0.162 0.584-0.531 0.628-0.952 0.776-3.709 1.299-10.034 2.579-16.723 2.891-7.762 0.485-14.986-1.897-22.229-4.177z" stroke="#c72600"/>
  <path d="m-1.867-13.484c-1.512 0.366-3.012 0.791-4.535 1.099-20.308 4.107-33.773-2.501-34.315-2.623-1.439-0.326-0.136-2.507 0.743-1.197 1.368 2.038 16.476 6.435 32.509 3.055 5.551-1.17 6.316-2.172 6.498-1.072-0.1 0.495-0.478 0.636-0.9 0.738z" stroke="#782b2a"/>
  <path d="m-28.421 3.347c-4.377-0.363-8.295-2.179-12.142-4.15-0.264-0.135-0.563-0.305-0.555-0.718 1.665-1.027 3.543 3.811 19.715 4.595 2.736 0.133 11.394-0.644 18.634-3.665 0.281-0.117 0.599-0.615 0.923-0.123 0.385 0.584-0.345 1.332-1.081 1.583-14.026 4.782-23.558 2.639-25.494 2.478z" stroke="#c7be2a"/>
  <path d="m-47.301 24.749c1.976 1.483 4.385 1.807 6.648 2.538 4.132 1.335 8.416 1.799 12.689 2.317 5.425 0.658 14.623-1.26 18.693-2.717 0.472-0.169 1.104-0.391 1.322 0.311 0.215 0.69-0.453 0.829-0.905 1.044-0.402 0.192-7.964 1.439-8.73 1.551-2.971 0.435-5.928 1.215-8.98 0.545-0.596-0.131-1.246-0.019-1.871-0.019-3.069 0.232-3.883-0.612-7.705-0.945-3.199-0.279-6.142-1.46-9.12-2.5-0.864-0.302-1.613-0.936-2.404-1.435-0.778-0.488-0.122-1.053 0.363-0.69z" stroke="#c72600"/>
  <path d="m-28.176 9.683c-3.438-0.21-12.014-1.648-13.291-4.559 0.736-0.412 1.17 0.091 1.585 0.411 4.405 3.392 12.586 3.192 17.607 3.454 0.303 0.016 6.046-0.944 8.965-0.91 5.397 0.063 8.237-3.763 9.102-2.247 0.355 0.623-0.38 0.835-0.814 1.078-3.257 1.825-14.219 3.319-23.154 2.773z" stroke="#c72600"/>
 </g>
</svg>
