<?xml version="1.0" encoding="UTF-8"?>
<!-- Created with Inkscape (http://www.inkscape.org/) -->
<svg width="108.81mm" height="108.88mm" version="1.1" viewBox="0 0 108.81 108.88" xmlns="http://www.w3.org/2000/svg">
 <g transform="translate(54.417 54.439)">
  <g transform="matrix(1 0 0 -1 0 -.0021424)" stroke="#000" stroke-linecap="round" stroke-linejoin="round">
   <path d="m50.015-1.388c-10.486 10.67-4.351 17.322-14.791 35.753-1.761 3.109-4.776 4.869-7.601 6.811-0.327 0.225-0.79 0.377-1.182 0.36-2.084-0.086-6.606 1.908-10.478 1.063-3.384-0.739-0.596 3.864-5.308 3.776-2.299-0.043-1.912 2.232-9.876 5.684-5.692 2.468-10.041 1.292-18.676-0.908-12.81-3.263-11.45-10.845-14.837-11.681-1.231-0.304-2.247-1.111-3.178-1.92-0.665-0.578-1.433-1.308-0.953-2.419 0.514-1.19-1.007-0.949-4.049-1.963-5.217-1.738-10.573-3.234-12.175-11.862-0.388-2.087-0.126-4.13-0.261-6.182-0.166-2.517-0.041-5.004 0.589-7.422 0.157-0.603 4.916-18.778 5.755-20.535 2.478-5.182 5.185-2.068 6.486-5.711 1.387-3.885 0.975-6.103 0.453-21.438 0.03 0 0.06-1e-3 0.09-1e-3 0.222-3.998-6e-3 -6.825 3.773-11.412 1.032-1.253 2.506-2.117 4.218-2.042 15.602 0.683 32.594 4.765 36.544 4.874 8.313 0.228 8.134 1.543 27.743 7.397 12.337 3.682 9.719 8.876 11.908 12.327 2.173 3.427 4.068 7.022 6.293 10.422 0.941 1.437 1.615 3.03 2.14 4.67 1.477 4.615 0.972 8.697-2.627 12.359zm-39.199 46.042c2.404 0.033 3.001-2.901-0.212-2.993-3.302 0.881-10.18-0.221-10.265 1.022-0.035 0.51 0.573 0.563 0.939 0.659 3.125 0.818 6.306 1.268 9.538 1.312zm-12.1-1.698c-0.19-0.891-0.755-1.317-1.502-1.629-2.07-0.866-4.193-1.493-6.457-1.61-3.778-0.195-7.29-1.5-10.844-2.64-1.753-0.563-1.797-0.519-2.281 1.299-0.303 1.139-0.912 1.845-2.15 1.857-3.654 0.034 5.039 7.801 14.853 7.919 1.643 0.02 8.413 1.06 12.117-2.425-0.884-1.031-3.263-0.55-3.736-2.771zm-19.2 5.847c16.268 5.075 17.615 3.491 26.396-1.663 1.893-1.111-1.092-1.673-1.929-0.652-1.965 2.398-4.815 2.855-7.57 3.194-6.603 0.811-12.795-0.623-18.542-3.984-5.006-2.928-3.793-6.577-7.576-5.503 1.856 4.316 4.782 7.223 9.221 8.608zm-15.033-12.351c4.069 2.658 5.17 1.594 10.414 2.026 0.961 0.079 1.607-0.291 1.792-1.227 0.037-0.762-0.378-0.936-0.979-0.97-5.637-0.319-6.605-0.186-10.296-1.315-0.419-0.128-0.876-0.54-1.208 0.078-0.275 0.514-0.183 1.108 0.277 1.408zm-6.74-51.39c-1.32 0.099-2.324 0.714-3.007 1.933-0.665 1.186-1.308 2.354-1.59 3.702-2.118 10.139-5.831 15.37-5.408 23.713 2e-3 4.524-0.118 9.266 4.232 13.922 0.718 0.768 1.527 1.448 2.514 1.817 5.204 1.944 10.386 3.979 15.931 4.768 3.362 0.479 6.32-0.894 11.661 1.464 6.413 2.832 12.295 1.602 15.032 3.619 0.938 0.692 2.065 0.998 3.239 0.956 3.273-0.116 6.566 0.396 9.822-0.295 2.658-0.565 4.088 2.186 13.751 0.179 3.205-0.666 7.872-6.619 8.498-12.757 0.781-7.645 1.265-19.177-3.554-25.139-2.7-3.34-3.727-2.987-16.432-8.57-1.577-0.693-1.081 0.777-1.743 4.551-0.242 1.38 1.714 0.761 2.785 2.798 1.454 2.766-0.829 5.206-3.241 4.481-2.883-0.867-2.056-0.45-4.78 9.708-0.187 0.696-0.512 1.363-0.836 2.012-1.038 2.076-2.125 2.597-4.115 2.025-4.131-1.187-2.977-4.628-1.551-8.681 0.693-1.97 1.044-4.017 1.569-6.023 0.829-3.171-3.731-1.404-3.551-5.134 0.107-2.216 1.93-3.582 4.327-2.909 2.313 0.649 1.652-1.182 2.599-2.996 0.687-1.316 0.023-1.939-1.127-2.235-4.573-1.175-9.116-2.501-13.852-2.902-8.683-0.735-8.306-1.565-8.974 1.08-0.231 0.916-0.096 1.472 1.035 1.812 2.37 0.713 3.079 2.436 2.178 4.604-0.558 1.341-1.624 1.795-2.971 1.87-2.02 0.113-2.262 0.301-2.785 2.233-1.574 5.824-1.708 9.569-6.112 10.753-2.06 0.554-4.873-0.307-4.199-2.79 3.457-12.744 4.002-12.351 2.464-12.879-3.508-1.205-3.954-1.856-2.479-6.368 0.244-0.746 0.801-1.081 1.594-0.844 3.155 0.941 3.64 1.638 4.143-0.155 0.225-0.801 0.422-1.514-0.702-1.837-4.703-1.351-9.491-1.851-14.365-1.486zm47.635 19.148c1.585 0.418 3.273 0.407 4.865 0.987 0.828 0.302 1.442-0.442 1.941-1.047 0.899-1.089-0.892-2.91-2.391-3.333-0.031-9e-3 -7.867-2.231-8.841-2.359-2.972-0.082-3.901 3.264-1.466 3.579 2.157 0.28 3.883 1.643 5.892 2.173zm-4.103 3.255c-0.712 2.486-1.506 4.949-2.202 7.44-1.095 3.921 3.758 4.636 4.639 1.913 1.05-3.249 2.221-7.456 2.482-10.619 0.224-0.62-0.116-0.76-0.734-0.943-3.291-0.977-3.266-1-4.185 2.209zm4.634-9.077c3.08 0.709 3.447 0.913 3.856-1.543 1.31-7.864 4.012-12.05 0.818-13.303-1.815-0.712-3.627 1.389-3.775 2.808-0.348 3.332-1.377 6.498-2.3 9.691-0.488 1.691-0.332 1.948 1.401 2.347zm-26.446-1.223c1.239-0.049 2.214-0.3 2.538-1.548 0.347-1.337-0.521-1.95-1.547-2.306-6.797-2.36-7.539-1.699-10.578-3.023-0.704-0.307-1.465-0.657-1.906 0.484-0.616 1.596-0.534 2.705 0.524 3.117 7.216 2.812 5.08 2.196 10.969 3.276zm-10.744 9.83c-0.117 0.393-0.131 0.821-0.16 1.235-0.113 1.65 0.064 1.837 1.659 1.797 2.033-0.05 3.869-1.586 4.472-3.933 0.618-2.408 1.086-4.855 1.641-7.28 0.281-1.227-0.557-0.792-2.391-1.45-2.434-0.873-1.767-2-5.221 9.631zm4.957-17.428c1.018 1.181 2.564 0.88 3.867 1.257 0.675 0.195 1.056-0.433 1.122-1.029 0.715-6.435 4.497-13.202 1.291-14.195-3.403-1.054-2.964 2.763-6.179 13.072-0.094 0.304-0.289 0.677-0.101 0.895zm68.462-18.908c-0.689-3.904-2.231-7.1-6.14-8.758-1.48-0.628-2.897-1.438-4.448-1.867-15.701-4.348-17.898-7.475-28.446-7.487-2.195-2e-3 -4.344-0.965-6.578-1.185-5.328-0.524-10.517-1.925-15.828-2.546-2.531-0.296-5.096-0.039-7.639-0.392-3.955-0.549-6.453-0.927-8.518 1.502-7.292 8.578 0.05 20.349-4.625 33.458 2.53-0.032 9.789 0.515 12.157 1.347 2.791 0.981 1.563-2.238 3.971-8.608 1.011-2.675 5.612-2.916 6.477 0.108 0.336 1.175 0.01 2.283-0.261 3.383-2.157 8.76-3.581 7.069 3.878 7.691 0.032 3e-3 11.828 1.708 17.743 3.252 1.48 0.386 1.148-0.451 1.902-4.831 0.377-2.192 3.175-4.789 5.509-3.679 1.433 0.681 2.335 2.589 1.996 4.379-1.002 5.284-2.056 6.171 0.046 6.979 3.049 1.173 6.056 2.454 9.117 3.595 7.808 2.909 7.582 6.366 9.356 7.268 0.467-5.519 3.136-10.248 4.351-15.405 0.292-1.24 0.949-2.41 1.537-3.563 1.512-2.964 2.023-6.328 3.803-9.194 1.03-1.662 0.979-3.53 0.64-5.447zm1.704 3.234c-0.678 2.191-1.901 3.838-2.52 5.711-1.127 3.412-3.252 6.439-4.11 9.876-1.071 4.289-3.35 8.16-3.963 12.586-0.938 6.768 2.134 16.125-0.157 27.983-0.734 3.798-2.886 6.319-5.119 9.119 5.368-2.889 7.516-7.748 9.764-12.59 5.44-11.714 2.006-19.814 11.379-29.175 7.739-7.732-2.146-17.566-5.274-23.51z" stroke="#250c16" stroke-width="2"/>
   <g fill="none" stroke-width="3">
    <g stroke="#9f9f91">
     <path d="m-30.466-7.9364 9.9132 3.0391"/>
     <path d="m1.2269 0.74661 8.6107 2.3878"/>
    </g>
    <g stroke="#c42f07">
     <path d="m-28.947 7.5483 2.0984-7.3082"/>
     <path d="m-23.882-12.35 2.3878-8.7554"/>
     <path d="m1.6611 15.508 1.8813-7.2359"/>
     <path d="m6.7262-3.3055 2.6049-10.13"/>
    </g>
    <g stroke="#871b42">
     <path d="m-34.434-29.452-0.6623-13.184 3.2271 3.5234-0.17951-8.6328 1.9721 3.8406 3.0324-4.9053 6.1906 2.307 2.9939-1.6246"/>
     <path d="m32.16-14.243 5.9599-13.923-5.239 1.4578 3.3426-6.3189-6.5545 2.5914-0.91312-7.0455-5.0721-0.78729"/>
    </g>
    <path d="m38.421 14.748 2.4365-10.696 7.8795-12.139-4.3316 0.29385 2.2463-5.3742-3.7648 0.95164" stroke="#5c112b"/>
    <g stroke="#301d60">
     <path d="m-45.802-0.74449 3.2074-10.023 1.1557 3.7799 2.6242-4.9357"/>
     <path d="m28.419 19.546-2.0758-13.494-2.5332 3.7111-3.2258-9.0644-2.9635 1.2164-2.441-3.0545"/>
     <path d="m-48.656 18.335 2.9238 7.6054 3.584-4.0435 5.8115 7.4095"/>
     <path d="m7.6037 37.291 11.981 1.7111s-2.6148-3.4779-1.1709-3.5758c1.4439-0.09795 6.2967 0.87828 6.2967 0.87828l1.2934-3.598"/>
    </g>
   </g>
  </g>
 </g>
</svg>
