<?xml version="1.0" encoding="UTF-8"?>
<!-- Created with Inkscape (http://www.inkscape.org/) -->
<svg width="87.131mm" height="89.26mm" version="1.1" viewBox="0 0 87.131 89.26" xmlns="http://www.w3.org/2000/svg" xmlns:xlink="http://www.w3.org/1999/xlink">
 <defs>
  <linearGradient id="linearGradient6935" x1="-43.565" x2="29.236" y1="6.6467" y2="6.6467" gradientUnits="userSpaceOnUse">
   <stop stop-color="#ecaa1a" offset="0"/>
   <stop stop-color="#b8312f" stop-opacity="0" offset="1"/>
  </linearGradient>
 </defs>
 <g transform="translate(43.565 44.631)">
  <g stroke-linecap="round" stroke-linejoin="round" stroke-width="2">
   <path d="m7.949 18.283c-0.981 0.417-1.032-0.035-9.719 2.192-7.902 2.026-9.643 4.955-14.304 10.611-1.722 2.091 0.329 2.708-2.188 4.61-2.578 1.948-4.304 0.385-4.937 2.605-0.829 2.903-4.853 3.237-6.84 1.87-1.489-1.025-1.617-0.14-6.04 3.053-1.573 1.136-2.347-0.332-4.347-1.764-6.481-4.638 3.941-5.809 2.823-12.561-0.491-2.964 2.801-4.46 2.913-4.796 0.915-2.763 3.288-4.002 5.35-5.749 6.864-5.818 7.097-16.326 8.011-21.559 4.212-24.13 30.967-36.321 43.035-19.064 2.484 3.552 4.476 7.425 5.712 11.573 3.947 13.262-6.841 23.604-19.469 28.979zm-48.505 18.701c-1.13 0.93-0.453 2.581 1.007 3.63 1.959 1.407 2.063 2.048 4.655 0.415 4.827-3.04 0.249-1.656-2.288-8.193-1.013 1.694-2.041 3.05-3.374 4.148zm5.042-11.068c-1.405 1.53-1.593 6.337 1.103 9.052 1.722 1.734 3.395 3.547 5.679 4.572 1.786 0.801 3.377 0.397 4.29-0.977 1.878-2.826-5.172-0.017-9.69-12.339-0.362-0.987-0.72-1.029-1.382-0.308zm60.887-38.37c-1.354-2.58-2.529-5.287-4.158-7.682-4.45-6.546-9.302-9.803-18.272-8.297-8.712 1.463-14.477 6.818-19.008 14.026-7.677 12.213-0.188 19.509-12.875 34.664-0.932 1.114-1.593 1.851-0.985 3.227 0.307 0.694 0.743 0.905 1.267 0.239 2.784-3.539 6.247-6.42 9.341-9.658 3.438-3.598 4.332-1.298 5.58-3.918 1.551-3.259 8.421-15.789 7.88-17.362-0.252-0.733-0.361-1.388-1.455-0.955-0.684 0.27-3.168 0.417-3.212-0.262-0.017-0.27 0.179-0.526 0.455-0.558 1.898-0.22 3.453-1.952 5.57-1.243 0.988 0.331 1.552-4.782 3.192-3.615 1.028 0.732-0.451 1.442-1.256 3.527-0.307 0.796-0.798 1.514 0.709 1.678 0.844 0.092 0.647 0.856 0.264 1.471-0.415 0.667-1.496 1.26-1.016 2.057 0.495 0.821 1.506-0.031 2.297 0.022 0.455 0.03 0.919-0.106 1.392 2e-3 2.5 0.57-1.426 2.675 1.745 2.675 0.859 0 2.054-0.151 2.425 0.599 0.421 0.852-0.735 1.471-1.161 2.216-0.398 0.695-1.19 1.157-1.016 1.685 0.255 0.773 1.693-0.298 2.182 0.666 0.436 0.858-0.811 0.981-1.666 2.898 1.365 2e-3 2.305-0.985 3.621-0.676-1.083 1.986-4.976 1.712-4.888 3.34 0.053 0.983 1.56 0.597 2.371 0.95 0.497 0.216 1.49 0.018 1.232 1.007-0.261 1.002-1.131 0.613-1.682 0.375-1.31-0.566-2.901-0.451-3.954-1.656-0.28-0.32-0.672-0.063-1.02 0.042-3.478 1.055-6.877 2.31-10.143 3.916-1.89 0.93 0.196 1.66-2.994 5.792-8.82 11.424-11.258 10.086-8.529 11.71 1.181 0.703 2.598 0.712 3.889 1.362-0.768 0.656-1.607 0.903-2.473 0.615-7.733-2.579-10.66-7.337-10.761-10.803-1.594 1.33-1.22 2.932-0.991 4.417 0.326 2.108 1.708 3.925 5.307 7.966 2.64 2.963 11.581 2.178 9.57-2.333-0.277-0.622-0.76-1.307 0.555-1.301 1.509 7e-3 3.923-7.877 12.408-10.072 9.691-2.506 23.812-3.863 30.455-18.599 2.038-4.522 2.265-9.474-0.192-14.154zm-53.159 39.39c3.023 2.451 3.011 2.473 5.68-0.267 3.081-3.164 8.16-8.117 9.073-11.595 0.43-1.638-0.066-2.22-1.825-2.177-0.787-0.066-1.602 0.177-2.229 0.755-3.866 3.569-7.636 7.232-10.944 11.344-0.639 0.795-0.528 1.313 0.245 1.94zm29.905-25.912c0.452-0.524 1.469-0.891 1.175-1.662-0.456-1.191-4.517 0.164-3.398-2.432 0.378-0.875-1.356-0.43-2.086-0.449-3.529-0.093-1.107-2.691-1.494-3.177-0.502-0.206-0.618 0.158-0.751 0.506-3.152 8.222-8.48 16.605-7.912 17.31 0.617 0.765 1.406-0.109 2.107-0.332 10.252-3.256 12.17-3.217 13.268-6.743-2.219-0.521-2.418-1.273-0.909-3.021z" stroke="url(#linearGradient6935)"/>
   <path d="m36.456 3.494c1.735-1.01 0.666 0.731 2.832 1.704 1.175 0.528 2.193 1.405 3.278 2.133-0.068 0.134-0.135 0.269-0.203 0.403-2.279-0.5-4.249-1.645-6.05-3.12-0.495-0.406-0.349-0.834 0.143-1.12z" stroke="#ecf548"/>
   <path d="m18.107-37.135c2.337-2.086 4.22-6.166 5.403-6.045-1.254 2.533-2.752 4.895-4.775 6.897-0.395 0.392-1.491-0.081-0.628-0.852z" stroke="#ecff1a"/>
   <path d="m-2.574-33.91c-1.081 0.382-0.435-5.164-2.587-8.491-0.544-0.841 1.196-2.002 1.356-0.507 0.514 4.792 2.055 8.707 1.231 8.998z" stroke="#fbff00"/>
   <path d="m32.995-19.163c-0.148-0.494-0.09-0.374 6.954-1.779-1.874 1.395-4.047 1.817-6.225 2.217-0.341 0.062-0.626-0.094-0.729-0.438z" stroke="#f3de4a"/>
  </g>
 </g>
 <path d="m31.795 32.745 6.4065-0.94912 5.2201-4.7456 1.4237 8.5421 4.5083 1.1864-0.94912 3.5592 4.0338 1.661-1.6608 7.6045 3.559 3.3103-6.4065 5.6947" fill="none" stroke="#ff0" stroke-linecap="round" stroke-linejoin="round" stroke-width="3"/>
</svg>
